<svg width="45" height="46" viewBox="0 0 45 46" fill="none" xmlns="http://www.w3.org/2000/svg">
<path d="M37.971 12.1405C37.7737 11.8996 37.1022 11.9954 36.7748 12.0799C36.5054 12.1784 36.2622 12.3383 36.0642 12.5469C36.0151 12.5906 35.9664 12.6342 35.9179 12.6757C28.8642 18.6848 22.0219 24.615 15.8537 31.0946C15.73 31.2244 15.5995 31.3467 15.4189 31.517C15.3249 31.6052 15.218 31.7055 15.0921 31.8255C14.3192 30.9721 12.552 28.9584 11.1275 27.3356C10.3794 26.4836 9.72685 25.7401 9.36456 25.3315C9.16412 25.0965 8.9763 24.8509 8.80192 24.5958C8.6837 24.4293 8.56128 24.2569 8.43313 24.0935C8.19841 23.7937 7.76107 23.2369 7.14286 23.6655C6.61899 24.0303 6.81818 24.5488 7.04851 24.9618C7.07544 25.0094 7.1018 25.0578 7.12796 25.1062C7.22139 25.2903 7.33001 25.4661 7.45264 25.632C8.54831 27.0245 12.0091 31.2991 13.1533 32.5651C14.0734 33.5828 14.6666 33.9892 15.2684 34.0116C15.2848 34.0116 15.3014 34.0116 15.3178 34.0116C16.0054 34.0116 16.707 33.4767 17.6096 32.6176C22.3599 28.0929 26.6501 24.0534 30.7257 20.2692C32.0263 19.0612 33.387 17.8743 34.7031 16.7262C35.5163 16.0169 36.357 15.2834 37.1753 14.5521C37.5737 14.1965 37.9446 13.8416 38.1056 13.4175C38.2418 13.0588 38.2131 12.4361 37.971 12.1405Z" fill="black"/>
<path d="M34.3324 45.165H32.4306C31.976 45.0554 31.5142 44.9788 31.0487 44.9357C26.9311 44.8337 22.8132 44.7193 18.6948 44.6797C15.5933 44.6499 12.4854 44.6156 9.39018 44.7757C3.63017 45.0745 0.198981 40.4794 0.615321 36.4641C0.732775 35.3323 0.628693 34.1763 0.613223 33.0314C0.519833 26.1198 0.405998 19.2086 0.340109 12.2966C0.325594 10.7717 0.324447 9.21866 0.58189 7.72473C1.19093 4.19153 4.36048 1.68239 8.27236 1.57351C14.4478 1.4007 20.6253 1.3062 26.8012 1.15412C29.4607 1.08864 32.1212 1.01032 34.7763 0.853433C39.0002 0.603805 43.2274 2.88041 43.8374 7.91426C44.2648 11.4404 44.5098 15.0031 44.5845 18.5549C44.7102 24.5405 44.6554 30.5304 44.6386 36.5182C44.6283 40.1205 41.6169 43.8195 38.0749 44.5929C36.8444 44.8621 35.5809 44.9789 34.3324 45.165ZM21.4923 42.6495C23.0425 42.7207 24.592 42.8169 26.1429 42.8582C29.584 42.9496 33.0202 43.4459 36.4687 42.8405C39.8959 42.2385 42.5471 39.3901 42.5347 36.2553C42.5152 31.3188 42.5141 26.3824 42.5315 21.446C42.5431 17.2457 42.5782 13.0612 41.7675 8.89491C41.0179 5.04237 38.6937 3.1907 34.7789 3.16651C28.8877 3.13022 22.9953 3.21586 17.1043 3.34529C14.2587 3.40789 11.411 3.62237 8.57583 3.89158C6.49833 4.08898 4.59614 4.77643 3.54211 6.81436C2.77048 8.35021 2.38256 10.0519 2.41188 11.7724C2.4159 19.6706 2.5007 27.5692 2.44436 35.4679C2.41228 39.9504 4.97639 42.68 9.42245 42.6535C13.4459 42.6289 17.4691 42.6479 21.4923 42.6496V42.6495Z" fill="black"/>
</svg>
