<svg width="50" height="50" viewBox="0 0 50 50" fill="none" xmlns="http://www.w3.org/2000/svg">
<g clip-path="url(#clip0_750_1680)">
<path d="M45.3699 4.22263C43.6156 4.4753 42.1586 4.6728 40.7059 4.89892C39.7261 5.05138 38.7539 5.25613 37.7746 5.41238C37.4297 5.48524 37.0754 5.4951 36.7274 5.44158C36.2952 5.34872 35.9135 5.0476 35.9212 4.54381C35.9184 4.18323 36.0403 3.8339 36.2644 3.56039C36.5886 3.27557 36.9705 3.072 37.3812 2.96508C38.1271 2.7374 38.8944 2.58555 39.6531 2.40519C42.0667 1.8284 44.4803 1.25156 46.8942 0.674623C48.7508 0.228194 49.828 0.952701 49.942 2.94131C50.0437 4.71631 49.965 6.50479 49.919 8.28604C49.8731 10.0673 49.782 11.8459 49.6831 13.6242C49.6344 14.0921 49.5593 14.5565 49.4582 15.0151C48.8659 15.1519 48.6344 14.8588 48.5359 14.4934C48.2671 13.4954 48.0301 12.4874 47.8063 11.4769C47.6148 10.6159 47.4605 9.74629 47.245 8.65388C46.8042 9.13111 46.432 9.44361 46.1661 9.83535C43.6203 13.5878 41.0999 17.359 38.5563 21.113C37.3665 22.869 36.1561 24.6096 34.9254 26.3346C34.4729 26.9994 33.9573 27.6143 33.3867 28.1699C32.4376 29.0505 31.3671 29.0851 30.2576 28.3291C29.6661 27.9262 29.1359 27.4246 28.5767 26.9674C26.9044 25.6025 25.208 24.2755 23.2401 23.1764C22.8771 23.523 22.5325 23.8902 22.208 24.2764C19.3973 28.0058 16.5941 31.7416 13.7984 35.4833C12.5716 37.1174 11.3558 38.7619 10.0892 40.3616C9.63746 40.93 9.11324 41.4302 8.53135 41.8483C7.81688 42.3603 7.45561 42.1815 6.62433 41.071C6.76756 40.6844 6.94144 40.3112 7.14412 39.9549C11.4084 33.5666 15.6816 27.1846 19.9639 20.8093C21.7712 18.1247 22.7512 17.8628 25.4629 19.4457C27.0682 20.3832 28.5842 21.4881 30.1361 22.5246C30.5488 22.8005 30.9459 23.102 31.4501 23.4637L45.3699 4.22263Z" fill="#BAD035"/>
<path d="M47.1586 49.1081C47.1346 49.015 47.1192 48.9193 47.105 48.8311C47.0673 48.5999 47.0318 48.3813 46.8563 48.292C46.401 48.0648 45.9261 47.8833 45.4382 47.7503C42.2173 46.8445 38.8637 46.6458 35.7037 46.52C35.0739 46.495 34.4444 46.4693 33.8146 46.4432C28.2309 46.2128 22.4569 45.9744 16.7662 46.3447C13.4364 46.5612 10.0481 46.7438 6.7715 46.9204C5.85874 46.9697 4.94603 47.0193 4.03342 47.0686C3.81463 47.0749 3.59571 47.0628 3.37874 47.0329L3.20746 47.015C3.19257 46.957 3.17746 46.9023 3.1632 46.851C3.1225 46.7351 3.09974 46.613 3.09576 46.4896C3.21022 44.9251 3.32874 43.3606 3.45129 41.7965C3.63576 39.4028 3.82661 36.9273 3.99129 34.4903C4.58448 25.7144 4.6368 17.9778 4.15148 10.8385C3.91978 7.63585 3.38844 4.46485 2.56512 1.37131C2.47591 1.084 2.34686 0.811983 2.18212 0.564117C2.11957 0.459653 2.05789 0.356617 2.00406 0.253492L1.91702 0.0857544L1.74576 0.150059C0.909806 0.463675 0.912991 1.11911 0.91597 1.59768V1.70231C0.904055 5.27107 0.895546 8.83958 0.89044 12.4079C0.88895 13.2681 0.893201 14.1284 0.897244 14.9887C0.905542 16.7005 0.914057 18.4709 0.875972 20.209C0.765121 25.3474 0.619378 30.3081 0.440442 36.2581C0.356825 39.036 0.247248 41.8831 0.114695 44.7202C0.0598018 45.8956 0.0663823 47.4454 0.609574 49.011L0.630846 49.0713L0.679361 49.1108C1.71234 49.9534 2.75682 49.957 3.59661 49.9525C4.68016 49.9525 5.76384 49.9499 6.84767 49.9445C8.10299 49.9407 9.35831 49.9378 10.6136 49.9365C18.6468 49.9385 26.6799 49.9429 34.7131 49.9494H36.1305C36.7854 49.9494 37.4407 49.9523 38.0965 49.9583C38.7773 49.9626 39.4701 49.967 40.1656 49.967C40.8769 49.967 41.5912 49.9624 42.3003 49.9483C43.8778 49.9034 45.4486 49.7148 46.995 49.384L47.2197 49.3394L47.1586 49.1081Z" fill="#BAD035"/>
</g>
<defs>
<clipPath id="clip0_750_1680">
<rect width="50" height="50" fill="white"/>
</clipPath>
</defs>
</svg>
