<svg width="60" height="60" viewBox="0 0 60 60" fill="none" xmlns="http://www.w3.org/2000/svg">
<g clip-path="url(#clip0_750_1687)">
<path d="M1.18466 40.7344C0.487566 41.2266 0.140732 41.6898 0.0914369 42.1924C0.0451299 42.6669 0.271207 43.1646 0.783074 43.7137C1.64054 44.6698 2.6129 45.5061 3.67599 46.202C7.76695 48.7612 11.89 51.2625 15.9315 53.637C18.3021 55.0298 20.7422 56.3874 23.1016 57.7007C24.1198 58.2669 25.1372 58.8347 26.154 59.4043C26.6674 59.73 27.2499 59.9181 27.8502 59.9521C28.2351 59.9516 28.613 59.8446 28.9454 59.6425C30.7379 58.5796 32.6828 57.403 34.8916 56.0446L37.8475 54.2264C44.5197 50.1225 51.4192 45.8809 58.1923 41.6846C59.1789 41.0734 59.7443 40.1705 59.7435 39.2077C59.7435 38.2264 59.1597 37.3043 58.144 36.6776C57.2708 36.1386 56.3743 35.6126 55.4253 35.057C55.0857 34.8578 54.7364 34.6529 54.3742 34.4396C54.7919 34.1209 55.1992 33.8113 55.5963 33.5105C56.6634 32.6999 57.6712 31.9344 58.6698 31.1589C59.5531 30.4731 60.0117 29.6035 59.9606 28.7103C59.9086 27.7929 59.3293 26.9583 58.3302 26.3599C57.4513 25.8334 56.5755 25.3019 55.6665 24.7494L54.7202 24.1757C55.0489 23.9159 55.3737 23.6603 55.6949 23.4087C56.6482 22.6604 57.5492 21.9541 58.441 21.2063C59.1819 20.5856 59.5536 19.824 59.4876 19.0616C59.4194 18.2736 58.8963 17.5653 58.0142 17.0671C56.8245 16.3952 55.7549 15.7829 54.715 15.0951L54.2629 14.7957C46.8099 9.86322 39.1033 4.76296 30.9692 0.717776C29.0833 -0.220406 27.4374 -0.11652 25.7908 1.04426C23.7056 2.51413 21.631 3.93514 19.5123 5.3819C17.2826 6.90571 15.052 8.4273 12.8207 9.9466C9.19953 12.4141 5.45486 14.9671 1.77893 17.4887C0.789548 18.1679 0.301302 18.8162 0.242298 19.53C0.185036 20.225 0.558007 20.9557 1.38232 21.7637C2.33795 22.6647 3.34064 23.5098 4.38581 24.2952C4.79038 24.6113 5.19472 24.9273 5.59331 25.2497C5.85795 25.4637 6.13627 25.6601 6.43129 25.8682L6.58064 25.9742C6.0877 26.3617 5.60272 26.7407 5.1257 27.1113C3.83732 28.1152 2.62017 29.0638 1.4259 30.0653C0.587895 30.7666 0.199492 31.3934 0.202728 32.0347C0.206214 32.6807 0.607541 33.3087 1.46572 34.0124C2.13791 34.5633 2.86288 35.0589 3.56396 35.5383C3.9872 35.8274 4.42388 36.1264 4.84238 36.4329C5.12471 36.649 5.39555 36.8809 5.65378 37.1277C5.71303 37.1825 5.77303 37.2381 5.83477 37.2942C5.39909 37.6183 4.97167 37.9383 4.55259 38.2537C3.3974 39.1227 2.30574 39.9422 1.18466 40.7344ZM11.4917 40.4176C13.6577 41.6747 15.8983 42.9747 18.1101 44.2212C19.2553 44.8659 20.4287 45.496 21.5647 46.1056C23.0336 46.8937 24.5523 47.7082 26.0158 48.5602C27.4949 49.4207 28.9879 49.476 30.8579 48.7394C35.819 46.7859 40.2936 44.0235 44.0141 41.5794C45.7964 40.4085 47.5242 39.2261 49.3553 37.975C50.1296 37.4456 50.9121 36.9118 51.7028 36.3734L55.978 39.1147C54.8895 39.8139 53.8098 40.509 52.7387 41.1999C50.0529 42.9305 47.5167 44.5653 44.9113 46.21C42.6361 47.6466 40.3165 49.0965 38.0731 50.4986C35.1104 52.3505 32.0454 54.2648 29.0454 56.1742C28.4761 56.5355 28.0979 56.4446 27.5566 56.1347C25.6561 55.0438 23.7545 53.9547 21.8523 52.8677C18.071 50.704 14.1613 48.4672 10.3253 46.2495C8.81384 45.3757 7.32858 44.4672 5.75613 43.5051C5.12874 43.1215 4.48988 42.7305 3.83336 42.3324L8.7215 38.8126C9.64781 39.3477 10.5709 39.8828 11.4907 40.4176H11.4917ZM52.0904 21.8541C49.4693 23.7783 46.9937 25.596 44.4035 27.315C41.3997 29.3087 38.2869 31.2425 35.2765 33.1126C33.542 34.19 31.7484 35.3043 29.9942 36.4181C29.3009 36.8596 28.7975 36.8492 28.0735 36.382C24.389 34.0053 20.6333 31.6079 17.0007 29.2911C13.9599 27.3505 10.8158 25.343 7.73038 23.3596C6.73453 22.7193 5.78847 22.0256 4.78739 21.2905C4.42223 21.023 4.05287 20.7535 3.67928 20.4822C4.53106 19.8761 5.36867 19.2778 6.19206 18.6871C8.24351 17.2185 10.1814 15.83 12.1672 14.4622C14.4885 12.8619 16.8606 11.2531 19.1548 9.69753C21.388 8.18299 23.6969 6.61699 25.9573 5.0601L26.0295 5.01024C29.1249 2.87777 29.1251 2.87855 32.4403 4.71257C39.0423 8.36426 45.7864 12.6564 54.3084 18.6299C54.5474 18.7975 54.7795 18.9905 55.0732 19.2352C55.1616 19.3087 55.2557 19.3869 55.3571 19.4705C54.2472 20.2702 53.1518 21.0741 52.0897 21.8541H52.0904ZM9.38894 27.7004C10.0329 28.1441 10.678 28.5918 11.3242 29.0435C12.8593 30.1126 14.4464 31.2186 16.0445 32.2607C18.5374 33.8872 21.0884 35.5111 23.5562 37.0815C24.9669 37.9796 26.3778 38.8796 27.7884 39.7815C29.0532 40.5934 30.1952 40.0887 30.9443 39.6389C31.921 39.0521 32.8986 38.4669 33.8776 37.8835C36.9458 36.0513 40.1186 34.1565 43.1925 32.2098C45.8552 30.5235 48.3841 28.7053 51.178 26.6744C51.9032 26.1472 52.3705 26.1386 53.0298 26.637C53.7654 27.1937 54.538 27.7038 55.3551 28.2438C55.6215 28.4194 55.8946 28.6007 56.1742 28.7869C55.6053 29.2085 55.0526 29.6261 54.5089 30.037C53.1346 31.076 51.8362 32.0568 50.4754 32.9513C44.4293 36.9298 39.1055 40.3578 34.1992 43.4318C33.2268 44.004 32.214 44.4981 31.1696 44.91C30.6069 45.1492 30.0246 45.3965 29.4647 45.6659C29.0813 45.863 28.6563 45.9555 28.2296 45.9342C27.8026 45.9126 27.3881 45.7783 27.0249 45.5438C23.4815 43.5505 19.9349 41.5635 16.3851 39.583C12.8866 37.6261 9.38989 35.6674 5.89477 33.7066C5.25618 33.3474 4.63577 32.9176 3.97776 32.4628C3.74971 32.3048 3.51541 32.1427 3.27143 31.977L9.38894 27.7004Z" fill="#BAD035"/>
</g>
<defs>
<clipPath id="clip0_750_1687">
<rect width="60" height="60" fill="white"/>
</clipPath>
</defs>
</svg>
