<svg width="45" height="46" viewBox="0 0 45 46" fill="none" xmlns="http://www.w3.org/2000/svg">
<g clip-path="url(#clip0_750_1428)">
<path d="M1.61102 44.8339C0.681441 44.824 0.194174 44.3512 0.176443 43.5372C0.173727 43.3075 0.202966 43.0782 0.263354 42.8563C0.944879 40.2862 1.66632 37.726 2.30834 35.1455C2.58766 33.8941 3.19676 32.7396 4.07268 31.8014C6.46149 29.2999 8.81136 26.7609 11.2281 24.2871C17.5856 17.7797 24.253 11.5985 31.0954 5.60344C32.5811 4.30182 34.0428 2.97116 35.5627 1.7105C36.4673 0.96057 36.8136 0.977701 37.727 1.7559C39.0301 2.86638 40.2856 4.033 41.5494 5.18886C42.2298 5.81092 42.882 6.46357 43.552 7.09697C44.4193 7.91709 44.4174 8.79334 43.5905 9.66345C42.2747 11.0479 40.9937 12.4645 39.6762 13.8469C39.202 14.3445 38.6547 14.7716 38.1586 15.2491C30.3958 22.7201 22.6344 30.1925 14.8744 37.6662C13.6424 38.8519 12.4088 40.0368 11.1462 41.1896C10.819 41.4667 10.4438 41.6816 10.0391 41.8241C7.61189 42.7567 5.17835 43.6728 2.73852 44.5721C2.36958 44.6868 1.99275 44.7742 1.61102 44.8339ZM8.36325 36.8088L34.5088 11.715C33.9372 11.1799 33.3927 10.6699 32.7526 10.0703C23.7727 18.099 15.6035 26.9036 7.11393 35.4641L8.36325 36.8088ZM10.7948 39.3042C19.5222 30.8819 28.2824 22.7161 36.6488 14.1736L35.884 13.2007C26.8602 21.3175 18.2771 29.7143 9.48265 37.8462L10.7948 39.3042ZM5.93298 34.386C14.2759 25.6093 22.6494 17.111 31.4323 8.92679L30.5305 8.12669C21.6231 16.0789 13.1623 24.4388 5.05413 33.1953C5.26344 33.4562 5.4101 33.6287 5.54482 33.8106C5.66335 33.9693 5.76743 34.1381 5.93377 34.386H5.93298ZM41.9422 8.66699C40.4872 6.81081 37.3664 3.75782 36.4438 3.27459L32.323 6.85736L38.5677 12.363C39.712 11.1108 40.8126 9.90495 41.943 8.66699H41.9422ZM3.83948 34.3231C3.51819 35.9737 3.22788 37.412 2.96942 38.8561C2.93766 39.0765 2.9913 39.3007 3.11939 39.4828C3.71283 40.2225 4.34269 40.9332 4.98316 41.6818L8.82273 40.2158L3.83948 34.3231Z" fill="white"/>
</g>
<defs>
<clipPath id="clip0_750_1428">
<rect width="44.33" height="44.0345" fill="white" transform="translate(0.00170898 0.982788)"/>
</clipPath>
</defs>
</svg>
