<svg width="45" height="46" viewBox="0 0 45 46" fill="none" xmlns="http://www.w3.org/2000/svg">
<g clip-path="url(#clip0_750_1424)">
<path d="M26.7175 7.57246C28.0251 7.57246 29.2247 7.56252 30.4241 7.57539C31.4945 7.58658 32.577 7.51713 33.6322 7.66996C35.8913 7.99779 37.1826 9.48775 37.4121 12.0224C37.5606 13.6651 37.5597 15.3245 37.6297 17.0775C38.1835 17.1811 38.7319 17.3181 39.2724 17.4878C41.6875 18.3712 43.5151 19.9832 44.3197 22.7596C45.1188 25.5211 44.4875 27.8092 42.4385 29.6035C41.252 30.6425 39.9385 31.4138 38.3004 31.6568C38.42 32.828 38.5544 33.9577 38.647 35.0932C38.7642 36.5287 38.8533 37.9671 38.9404 39.405C38.9522 39.6938 38.936 39.983 38.8921 40.268C38.5388 42.8706 37.4334 44.0122 35.0517 44.1006C32.7749 44.1851 30.4943 44.1477 28.2169 44.2252C26.5603 44.2818 25.5183 43.4653 24.9393 41.768C24.6416 40.9296 24.2942 40.1141 23.8996 39.3267C22.547 36.543 19.3715 36.3478 17.5006 38.0025C16.2042 39.1496 15.4525 40.6834 14.9702 42.4041C14.8997 42.6447 14.8533 42.8936 14.832 43.1457C14.775 43.9425 14.3754 44.4293 13.6979 44.5627C12.5183 44.7949 11.3228 45.1466 10.1402 45.1158C7.93317 45.0584 5.73153 44.7652 3.52815 44.5623C3.33508 44.534 3.14475 44.4859 2.9598 44.4183C1.13199 43.8526 0.415322 42.8685 0.401814 40.7681C0.384691 38.0958 0.415531 35.4234 0.424853 32.7511C0.425995 32.4269 0.429752 32.1022 0.418908 31.7782C0.385422 30.7827 0.741066 30.3398 1.66134 30.2583C2.40468 30.1916 3.14802 30.1185 3.89269 30.0753C6.26063 29.9381 8.14945 25.6197 6.45559 22.9468C5.77066 21.8664 4.74462 21.3131 3.54562 21.1946C2.99597 21.1402 2.4457 21.0872 1.89796 21.014C1.6807 21.0047 1.47552 20.9008 1.32681 20.7248C1.1781 20.5488 1.09787 20.3149 1.10348 20.0737C1.10215 17.4819 0.741936 14.8789 1.26838 12.3016C1.31861 12.0557 1.3805 11.8115 1.45222 11.5723C1.97524 9.82949 3.0403 8.74997 4.69877 8.58363C6.02258 8.45106 7.36006 8.47677 8.69167 8.4527C9.69452 8.43455 10.698 8.44895 11.7421 8.44895C11.7992 8.25769 11.8631 8.05798 11.9209 7.85638C12.9464 4.28718 15.1825 2.05232 18.3741 1.14504C21.2596 0.324719 24.9705 1.56384 26.2302 5.86216C26.4005 6.44141 26.5622 7.0253 26.7175 7.57246ZM2.81821 18.948C3.17114 18.948 3.36204 18.948 3.55287 18.948C7.57206 18.9372 10.2054 22.5909 9.68578 26.8373C9.50561 28.3103 8.86157 29.5568 8.12889 30.7586C7.51462 31.7488 6.62144 32.4849 5.5894 32.8514C4.53918 33.2867 3.3975 33.3738 2.30347 33.1022C2.27733 33.2575 2.26351 33.4152 2.26231 33.5733C2.46456 35.8711 2.65828 38.1701 2.88678 40.465C2.96516 41.2507 3.14172 41.4282 3.88525 41.5263C5.08026 41.684 6.27882 41.8609 7.47935 41.9025C9.29193 41.9658 11.1074 41.919 12.927 41.919C12.9417 41.8993 12.9715 41.8768 12.9797 41.8453C13.0448 41.6038 13.1 41.3598 13.1687 41.1191C13.7796 38.9786 14.6896 37.0494 16.3688 35.6883C17.8199 34.5125 19.439 33.9592 21.2352 34.2693C24.3174 34.8017 26.0643 36.9958 27.0295 40.1217C27.1642 40.5576 27.2622 41.0083 27.3838 41.4763C27.7557 41.4763 28.0771 41.4867 28.3978 41.4746C29.6984 41.4256 30.9994 41.3796 32.2994 41.3133C33.1765 41.2686 34.0546 41.2175 34.9281 41.1219C35.8261 41.0235 36.0022 40.8475 36.0315 39.8473C36.0614 38.8402 36.003 37.8284 35.9577 36.8202C35.8864 35.237 35.799 33.6538 35.7062 32.0705C35.6986 31.6781 35.6482 31.2884 35.5561 30.9095C35.2068 29.6999 35.4627 29.0493 36.5494 28.6892C37.2638 28.4526 38.003 28.3092 38.7292 28.1148C39.6843 27.8691 40.5618 27.3414 41.2688 26.5878C41.5089 26.3416 41.6997 26.0425 41.8291 25.7094C41.9583 25.3763 42.0229 25.0168 42.0191 24.6543C42.0492 23.636 41.7863 22.6337 41.2684 21.7925C40.398 20.4368 39.1969 19.6197 37.7798 19.1848C37.4712 19.1202 37.1524 19.1559 36.8616 19.2874C35.9613 19.6463 35.406 19.3507 35.2456 18.2853C35.1398 17.5368 35.082 16.781 35.0725 16.0234C35.047 14.8329 35.1092 13.6393 35.0645 12.4502C35.0002 10.7404 34.507 10.1371 33.012 9.79972C32.7572 9.74286 32.4985 9.7107 32.2386 9.70368C30.6773 9.65977 29.1155 9.63505 27.5544 9.58312C27.1269 9.56898 26.7763 9.56351 26.4058 9.9515C25.879 10.5027 25.2295 10.3659 24.8136 9.69166C24.5906 9.29563 24.4211 8.86537 24.3107 8.41473C24.1085 7.69342 23.9715 6.94994 23.7795 6.22483C23.4639 5.03193 22.74 4.2456 21.7114 3.80124C20.1669 3.13376 18.6482 3.20384 17.201 4.11789C15.2272 5.3644 13.778 7.11145 13.2308 9.61483C13.0596 10.3999 12.6319 10.6944 12.0005 10.7495C11.5458 10.7748 11.0902 10.7704 10.636 10.7364C8.88217 10.6591 7.13521 10.462 5.37266 10.7165C4.28059 10.8742 3.70527 11.4477 3.40618 12.6045C2.87707 14.6534 3.11406 16.7591 2.81821 18.948Z" fill="black"/>
</g>
<defs>
<clipPath id="clip0_750_1424">
<rect width="44.33" height="44.33" fill="white" transform="translate(0.334961 0.834961)"/>
</clipPath>
</defs>
</svg>
