<svg width="54" height="54" viewBox="0 0 54 54" fill="none" xmlns="http://www.w3.org/2000/svg">
<path d="M27.5761 37.9209C24.8475 37.8607 22.7535 37.4506 20.7577 36.5504C19.2661 35.8935 18.0036 34.7865 17.137 33.3759C16.8143 32.8544 16.5577 32.2348 17.0796 31.7621C17.6579 31.2385 18.2322 31.5843 18.6775 32.094C21.3515 35.1596 24.8279 35.8582 28.5412 35.2928C31.6677 34.8166 34.0332 32.9935 35.399 29.9637C35.5604 29.6081 35.6664 29.1487 35.9428 28.9444C36.3347 28.6552 36.9227 28.3319 37.3139 28.4433C37.7146 28.5573 38.2459 29.1781 38.2454 29.5761C38.2564 30.3545 38.0581 31.1209 37.6724 31.7908C35.1692 35.7195 31.6251 37.8169 27.5761 37.9209Z" fill="#BAD035"/>
<path d="M34.4208 18.6676C34.5833 17.7688 34.667 17.1089 34.8276 16.4693C35.0233 15.6904 35.4908 15.1241 36.3075 15.0233C37.1374 14.9221 37.7955 15.3036 38.2824 15.9777C39.1583 17.1921 39.0627 20.3079 38.1281 21.4671C37.2868 22.5101 35.7508 22.4653 35.1587 21.2571C34.744 20.4118 34.6229 19.4133 34.4208 18.6676Z" fill="#BAD035"/>
<path d="M18.6775 18.7111C18.4469 19.6133 18.3548 20.3741 18.0608 21.0426C17.5106 22.2989 16.137 22.4471 15.3975 21.3114C14.4148 19.8022 14.3417 18.081 14.9134 16.4307C15.3684 15.117 17.0463 14.9905 17.7688 16.1973C18.2328 16.9726 18.4071 17.9317 18.6775 18.7111Z" fill="#BAD035"/>
<path d="M0.955195 19.5705C-1.43109 29.215 0.658502 37.7231 7.17031 44.8615C7.33974 45.046 7.51263 45.2304 7.68528 45.4081C11.1833 49.005 15.5403 51.2258 18.9925 52.7713C20.4742 53.4367 28.0771 54.2448 30.1342 53.9297C42.3591 52.0524 50.4041 44.9622 53.206 33.1003C53.7409 30.7767 54.0074 28.3963 53.9998 26.0085C54.0128 20.3835 51.7097 13.8441 46.9599 8.94632C46.4708 8.53055 45.9835 8.09984 45.5123 7.68241C44.4904 6.77905 43.4342 5.84373 42.3291 5.04609C33.8874 -1.06363 25.1164 -1.09782 16.2607 2.14205C8.24291 5.07353 3.09368 10.9384 0.955195 19.5705ZM16.295 5.02994C24.065 1.70972 31.8612 1.12375 39.4652 6.09663C40.8554 7.00686 44.5621 10.0875 45.1458 10.5502L45.1831 10.5786L45.214 10.6139C48.1807 13.8488 51.5776 19.7637 51.5027 25.844C51.4779 28.4439 51.1356 31.0302 50.4838 33.5423C48.5523 40.7616 43.9347 46.023 36.3666 49.6215C28.673 53.4097 17.6396 49.5801 14.704 47.5873C11.4594 45.3061 8.62033 42.4682 6.31098 39.1977C2.68913 33.9247 1.87632 26.3451 3.82256 19.4162C4.73343 16.2169 6.3252 13.2662 8.48246 10.7779C10.6397 8.28968 13.3084 6.32623 16.295 5.02994Z" fill="#BAD035"/>
</svg>
