<svg width="45" height="46" viewBox="0 0 45 46" fill="none" xmlns="http://www.w3.org/2000/svg">
<g clip-path="url(#clip0_750_1433)">
<path d="M44.8749 24.8219C44.8942 20.5661 44.7874 16.8439 44.5486 13.4428C44.2144 8.68144 42.0841 6.05834 38.3884 5.85516C36.8191 5.76896 35.2214 5.83467 33.6762 5.89624C32.9739 5.92477 32.2476 5.95451 31.5339 5.96929C31.3032 5.97401 31.0738 5.97253 30.876 5.9713H30.7699C30.6893 5.685 30.6122 5.40591 30.5364 5.13213C30.3507 4.46164 30.1738 3.82729 29.981 3.19887C29.9738 3.16747 29.967 3.13568 29.9598 3.10448C29.8688 2.66963 29.6811 2.27558 29.4184 1.96768C28.9324 1.26559 28.2614 0.924662 27.4094 0.951547C26.253 0.989105 25.0767 1.01578 23.9391 1.04144C22.1961 1.08084 20.3936 1.1215 18.6213 1.20278C17.6696 1.24628 17.1487 1.45279 16.8115 1.97921C16.5896 2.14293 16.4078 2.37904 16.2858 2.66214C15.8636 3.78006 15.621 4.99005 15.5718 6.22394H15.2855C14.8309 6.22394 14.411 6.22236 13.9909 6.22564C13.4878 6.22913 12.9845 6.22913 12.4812 6.22934C11.2566 6.22934 9.99011 6.22931 8.74475 6.28144C7.22771 6.35106 5.73457 6.7739 4.34258 7.52818C2.38382 8.57486 1.40475 10.2945 1.34922 12.7831C1.31164 14.4744 1.25892 16.1941 1.208 17.8569C1.16383 19.298 1.11807 20.7882 1.08231 22.2548C1.06319 23.0437 1.06214 23.846 1.06098 24.6218C1.05901 25.9851 1.05691 27.3951 0.956217 28.766C0.701279 32.2354 0.746249 35.0194 1.09776 37.5271C1.41548 39.7927 2.2678 41.6236 3.5631 42.8221C4.74234 43.9443 6.17423 44.5783 7.65764 44.6349C8.43261 44.6622 9.20753 44.692 9.98239 44.724C11.9077 44.8009 13.8984 44.8804 15.858 44.8995C20.0101 44.9405 23.9037 44.961 27.6419 44.961C29.3546 44.961 31.0382 44.9567 32.6922 44.9483C34.5615 44.9391 36.5814 44.8317 38.8683 44.6199C41.7522 44.3531 43.7121 42.3829 44.5345 38.9204C44.8144 37.7615 44.9637 36.5595 44.9781 35.3494C44.9862 33.5894 44.956 31.801 44.927 30.0715C44.897 28.35 44.8663 26.5711 44.8749 24.8219ZM42.4582 30.4237C42.4734 32.0988 42.4892 33.7741 42.5057 35.4494C42.5185 36.7534 42.273 38.0414 41.7908 39.1992C41.3516 40.2664 40.7031 40.8999 39.8585 41.0807C38.9302 41.312 37.9886 41.4495 37.0427 41.4924C33.6952 41.5234 30.2912 41.5187 26.9989 41.5148C25.8094 41.5131 24.6202 41.5121 23.4311 41.5115C22.2154 41.5115 21.0002 41.5121 19.7855 41.5133C16.8504 41.516 13.816 41.5191 10.8319 41.4986C9.71089 41.4883 8.59114 41.4042 7.4773 41.2463C5.40863 40.9566 3.93914 39.1618 3.54677 36.4458C3.11072 33.4289 3.16068 30.3338 3.2088 27.3415C3.21721 26.8192 3.22532 26.2973 3.23158 25.7756C3.24156 24.8939 3.25661 24.0092 3.27671 23.1217C3.71929 23.2301 4.16785 23.2968 4.6185 23.321C5.69461 23.3658 6.78834 23.3621 7.84633 23.3586C8.35028 23.3571 8.85404 23.3551 9.35749 23.3586C9.5531 23.36 9.74621 23.374 9.96984 23.39C10.0298 23.3945 10.0913 23.3988 10.1549 23.4031C10.1549 23.6541 10.1536 23.8983 10.1527 24.1376C10.1502 24.7944 10.1477 25.4146 10.158 26.0358C10.1803 27.3626 10.6221 27.9947 11.6353 28.1497C12.593 28.2794 13.5559 28.3402 14.5192 28.3317H14.5533C16.4077 28.3317 17.1076 27.4435 17.1309 25.0686C17.135 24.6499 17.1339 24.2306 17.1327 23.8033V23.4086H29.5147C29.5147 23.4587 29.5147 23.5082 29.5147 23.5568C29.5133 23.8123 29.512 24.0494 29.5176 24.285C29.5278 24.7174 29.5381 25.0778 29.5684 25.4515C29.6821 26.8569 30.1781 27.4552 31.2823 27.5164C32.1631 27.5652 33.1067 27.5574 34.0862 27.4911C35.0435 27.4271 35.6233 26.7564 35.7627 25.5513C35.823 25.0287 35.8492 24.4947 35.8768 23.9299C35.887 23.7216 35.8975 23.5065 35.9097 23.2822L37.2899 23.2832C38.6508 23.2843 39.9821 23.2857 41.3132 23.2777C41.6721 23.2802 42.0309 23.2596 42.3882 23.2161C42.4144 25.6381 42.4364 28.0541 42.4582 30.4237ZM20.2108 3.79012C21.3504 3.73778 22.5061 3.7181 23.6404 3.70394C24.8406 3.74068 26.0736 3.77723 27.2896 3.80104C27.3911 3.80069 27.4923 3.81388 27.5915 3.84042C27.7068 3.99406 27.7812 4.18864 27.8037 4.39719C27.8805 4.81133 27.9806 5.21822 28.1032 5.61485C28.1259 5.79355 28.1508 5.97206 28.178 6.15049H17.8603C18.2771 3.87939 18.3046 3.87796 20.2116 3.79032L20.2108 3.79012ZM33.6304 23.4062C33.6242 23.4725 33.6181 23.5381 33.612 23.6036C33.5882 23.9324 33.5454 24.2585 33.4842 24.5797C33.4432 24.7133 33.3628 24.8225 33.2593 24.8847C32.7615 24.9514 32.2592 24.9809 31.7277 25.0123C31.5868 25.0205 31.4442 25.0289 31.2992 25.0382L31.1509 23.4062H33.6304ZM14.7363 23.429V25.3904H12.1811L11.9736 23.531C12.5109 23.2874 13.8134 23.2377 14.7371 23.429H14.7363ZM42.1604 20.1728C42.105 20.1777 42.0498 20.1824 41.9945 20.1853C41.7052 20.2001 41.4162 20.2174 41.127 20.2349C40.4993 20.2726 39.85 20.3115 39.2127 20.322C36.2495 20.371 33.2863 20.4164 30.3231 20.4583C27.6783 20.4973 25.0335 20.5375 22.3889 20.5789C17.318 20.661 12.2471 20.7472 7.17644 20.8376L3.32925 20.9046C3.37062 19.3756 3.41875 17.8528 3.46638 16.3554C3.49143 15.5702 3.51613 14.7852 3.5404 14.0004C3.6317 11.0118 4.071 10.3136 6.30628 9.60554C7.683 9.16302 9.09696 8.92505 10.5186 8.89665C13.4695 8.85211 16.4705 8.85833 19.3731 8.86408C21.737 8.869 24.1817 8.87413 26.5861 8.85156C27.9539 8.83904 29.3411 8.76121 30.6834 8.6861C31.7508 8.62638 32.8544 8.56462 33.9393 8.5363C35.4269 8.4971 36.9656 8.45686 38.4738 8.65203C40.6853 8.93792 41.7038 10.2177 41.9884 13.069C42.1625 14.6257 42.2715 16.1927 42.3148 17.7635C42.327 18.5601 42.3386 19.3587 42.3491 20.1594C42.286 20.1623 42.2229 20.1678 42.1612 20.1728H42.1604Z" fill="black"/>
</g>
<defs>
<clipPath id="clip0_750_1433">
<rect width="44.33" height="44.33" fill="white" transform="translate(0.668213 0.834961)"/>
</clipPath>
</defs>
</svg>
